<svg id="vector" xmlns="http://www.w3.org/2000/svg" width="24.0d" height="24.0d" viewBox="0 0 24.0 24.0"><path fill="#070c2bff" d="M20.291,7.239H19.818V6.55C19.818,4.465 18.116,2.992 16.072,2.759C14.432,2.571 13.604,2.571 11.999,2.571C10.393,2.571 9.569,2.571 7.923,2.763C5.875,2.992 4.179,4.465 4.179,6.55V7.239H3.706C3.405,7.239 3.117,7.36 2.904,7.575C2.691,7.79 2.572,8.083 2.572,8.387V10.659C2.572,10.964 2.691,11.256 2.904,11.471C3.117,11.686 3.405,11.807 3.706,11.807H4.179V17.391C4.181,18.048 4.393,18.688 4.783,19.214C5.173,19.74 5.72,20.124 6.343,20.309V21.296C6.345,21.559 6.449,21.81 6.633,21.995C6.816,22.18 7.065,22.285 7.324,22.286H8.164C8.425,22.285 8.674,22.18 8.858,21.994C9.042,21.808 9.145,21.556 9.146,21.292V20.431H14.851V21.292C14.852,21.556 14.956,21.808 15.14,21.994C15.324,22.18 15.574,22.285 15.834,22.286H16.674C16.934,22.285 17.184,22.18 17.368,21.994C17.552,21.808 17.655,21.556 17.656,21.292V20.309C18.279,20.124 18.827,19.74 19.217,19.214C19.607,18.688 19.819,18.048 19.821,17.391V11.807H20.294C20.595,11.807 20.884,11.686 21.096,11.471C21.309,11.256 21.429,10.964 21.429,10.659V8.387C21.429,8.236 21.399,8.087 21.342,7.947C21.285,7.807 21.201,7.681 21.095,7.574C20.99,7.467 20.864,7.383 20.726,7.325C20.588,7.268 20.44,7.238 20.291,7.239ZM7.793,5.171C7.967,4.75 8.165,4.529 8.915,4.412C9.938,4.279 10.968,4.211 11.999,4.209C13.03,4.211 14.06,4.279 15.083,4.412C15.832,4.529 16.029,4.75 16.205,5.171C16.382,5.592 16.3,5.919 15.766,5.919H8.233C7.698,5.921 7.618,5.593 7.793,5.171ZM8.473,18.069H6.462C5.859,18.069 5.611,18.014 5.611,16.957C5.611,16.529 5.57,16.047 6.089,16.047C6.608,16.047 7.413,16.267 8.291,16.535C9.17,16.803 9.258,16.975 9.258,17.385C9.258,17.795 9.119,18.069 8.473,18.069ZM18.386,16.957C18.386,18.01 18.138,18.069 17.535,18.069H15.526C14.88,18.069 14.741,17.794 14.741,17.385C14.741,16.976 14.825,16.804 15.706,16.535C16.587,16.266 17.39,16.047 17.909,16.047C18.428,16.047 18.386,16.529 18.386,16.957ZM18.386,12.076C18.386,13.363 17.259,14.96 14.698,14.96H9.299C6.74,14.96 5.611,13.363 5.611,12.076V8.721C5.611,7.645 5.917,7.32 6.935,7.32H17.069C18.082,7.32 18.392,7.645 18.392,8.721L18.386,12.076Z" id="path_0"/></svg>