<svg width="143" height="64" viewBox="0 0 143 64" fill="none" xmlns="http://www.w3.org/2000/svg">
<path fill-rule="evenodd" clip-rule="evenodd" d="M111.031 0C110.72 0 110.409 0.00632297 110.1 0.0140539H31.959C14.3094 0.0140539 0 14.3378 0 32.0047C0 49.6735 14.3094 63.9965 31.959 63.9965V64H111.031C128.686 64 143 49.6735 143 32.0005C143 14.3276 128.686 0 111.031 0Z" fill="#ffd800"/>
<path fill-rule="evenodd" clip-rule="evenodd" d="M32.3338 33.7683L31.2592 34.805C30.5825 35.4828 30.5825 36.5992 31.2592 37.2768C31.9756 37.9546 33.0902 37.9546 33.7669 37.2768L37.787 33.29L37.8666 33.25C38.1852 32.8912 38.3441 32.4526 38.3441 32.0141C38.3441 31.5755 38.1852 31.0973 37.8666 30.7782C37.827 30.7385 37.827 30.7385 37.787 30.6984L33.7669 26.7117C33.0902 26.0338 31.9756 26.0338 31.2592 26.7117C30.5825 27.3892 30.5825 28.5056 31.2592 29.1835L32.3338 30.2599H27.1995C26.2442 30.2599 25.4482 31.0572 25.4482 32.0141C25.4482 32.971 26.2442 33.7683 27.1995 33.7683H32.3338ZM42.802 32.0141C42.802 37.8351 38.0259 42.5795 32.1745 42.5795C26.2838 42.5795 21.5077 37.8351 21.5077 32.0141C21.5077 26.1533 26.2838 21.449 32.1745 21.449C38.0259 21.449 42.802 26.1533 42.802 32.0141Z" fill="#231F20"/>
<path d="M59.4003 42.1483C59.0021 41.9487 58.6439 41.6697 58.3653 41.2712L51.2408 31.0249V40.0353C51.2408 40.7926 50.9623 41.5102 50.4448 41.9888C49.9273 42.4671 49.2506 42.7862 48.4942 42.7862C47.7382 42.7862 47.0614 42.4671 46.544 41.9888C46.0265 41.5102 45.748 40.7926 45.748 40.0353V24.2473C45.748 23.5294 46.0665 22.8118 46.584 22.3335C47.0614 21.8152 47.7382 21.4961 48.4942 21.4961H49.6488C50.0466 21.4961 50.5641 21.616 51.0019 21.8549C51.4001 22.0545 51.7583 22.3733 52.0368 22.7721L59.1614 33.0184V23.9679C59.1614 23.2107 59.4799 22.5328 59.9974 22.0145C60.4748 21.5362 61.1912 21.2568 61.9476 21.2568C62.704 21.2568 63.3804 21.5362 63.8582 22.0145C64.3756 22.5328 64.6938 23.2107 64.6938 23.9679V39.796C64.6938 40.5136 64.3756 41.1915 63.8582 41.7098C63.3804 42.1881 62.704 42.5071 61.9476 42.5071H60.7534C60.3556 42.5071 59.8777 42.4274 59.4003 42.1483Z" fill="#231F20"/>
<path fill-rule="evenodd" clip-rule="evenodd" d="M118.586 36.7584C120.218 36.7584 121.491 38.0741 121.491 39.6688C121.491 41.2638 120.218 42.5795 118.586 42.5795C116.994 42.5795 115.68 41.2638 115.68 39.6688C115.68 38.0741 116.994 36.7584 118.586 36.7584ZM115.68 24.3594C115.68 22.7647 116.994 21.449 118.586 21.449C120.178 21.449 121.491 22.7647 121.491 24.3594V32.0541C121.491 33.6488 120.178 34.9645 118.586 34.9645C116.994 34.9645 115.68 33.6488 115.68 32.0541V24.3594Z" fill="#231F20"/>
<path d="M110.626 21.3338C110.904 21.4537 111.223 21.5731 111.462 21.7327H111.502C111.899 22.0117 112.178 22.3308 112.417 22.6896C112.616 23.0881 112.735 23.5266 112.735 23.9652C112.735 24.2842 112.696 24.6033 112.576 24.8823C112.457 25.1614 112.298 25.4404 112.059 25.6797L104.854 34.0122V40.0325C104.854 40.8299 104.496 41.5475 103.899 42.0257C103.382 42.5043 102.625 42.7834 101.829 42.7834C100.994 42.7834 100.277 42.5043 99.7198 42.0257C99.1627 41.5475 98.8045 40.8299 98.8045 40.0325V34.0122L91.5604 25.6396C91.3215 25.4007 91.1626 25.1217 91.0829 24.8423C90.9633 24.5633 90.9236 24.2842 90.9236 23.9652C90.9236 23.2079 91.2818 22.4903 91.8786 21.972C92.3964 21.5334 93.1128 21.2144 93.9484 21.2144C94.3863 21.2144 94.8241 21.2941 95.2619 21.4934C95.6601 21.6529 96.0183 21.9319 96.3368 22.251L101.829 28.59L107.322 22.251V22.2109C107.641 21.8922 107.999 21.6529 108.397 21.4934C108.795 21.2941 109.272 21.2144 109.71 21.2144C109.989 21.2144 110.307 21.2541 110.626 21.3338Z" fill="#231F20"/>
<path fill-rule="evenodd" clip-rule="evenodd" d="M83.0426 31.4561C82.9234 30.3797 82.4455 29.4228 81.6495 28.6652C80.6942 27.7083 79.5797 27.23 78.2662 27.23C76.9131 27.23 75.7985 27.7083 74.8832 28.6652C73.9279 29.582 73.4501 30.6984 73.4501 32.0141C73.4501 33.3298 73.9279 34.4462 74.8832 35.363C75.7985 36.2802 76.9131 36.7584 78.2662 36.7584C79.5797 36.7584 80.6942 36.2802 81.6495 35.363C82.4455 34.5657 82.9234 33.6488 83.0426 32.5324V31.5358C83.0426 31.4958 83.0426 31.4958 83.0426 31.4561ZM83.5201 41.2238C81.8884 42.1409 80.1371 42.5795 78.2662 42.5795C75.321 42.5795 72.8133 41.5428 70.7435 39.4695C68.634 37.3966 67.639 34.9244 67.639 32.0141C67.639 29.1037 68.634 26.5919 70.7435 24.5189C72.8133 22.4857 75.321 21.449 78.2662 21.449C81.1721 21.449 83.6794 22.4857 85.7889 24.5189C87.6598 26.3926 88.6944 28.6255 88.8537 31.2568C88.8537 31.3362 88.8937 31.416 88.8937 31.4958V39.6291C88.8937 41.2238 87.5402 42.4997 85.9482 42.4997C85.1522 42.4997 84.4358 42.2207 83.8783 41.6623C83.759 41.5028 83.5998 41.3833 83.5201 41.2238Z" fill="#231F20"/>
</svg>
