<svg id="vector" xmlns="http://www.w3.org/2000/svg" width="21.0d" height="20.0d" viewBox="0 0 21.0 20.0"><path fill="#000000" d="M2.758,1.429H7.883V7.128H2.178V2.01C2.178,1.69 2.439,1.429 2.758,1.429ZM4.046,5.238H6.015V3.304H4.046V5.238ZM11.633,3.202H9.852V7.041H11.633V3.202ZM2.178,9.004H4.046V10.793H2.178V9.004ZM13.617,9.004H15.484V10.792H17.453V12.769H15.484V10.793H13.617V9.004ZM15.484,12.769V16.565H11.633V18.571H9.852V14.689H13.616V12.769H15.484ZM17.453,12.769H19.321V16.565H17.453V12.769ZM19.321,9.004H17.454V10.793H19.321V9.004ZM17.454,16.565H15.484V18.571H17.454V16.565ZM11.633,12.77H9.852V10.793H7.883V9.004H11.633V12.77ZM2.193,17.99C2.193,18.309 2.454,18.571 2.772,18.571H7.869V12.828H2.193V17.99ZM4.075,14.718H6.001V16.695H4.075V14.718ZM18.742,1.429C19.061,1.429 19.321,1.69 19.321,2.01V7.128H13.617V1.429H18.742ZM15.484,5.238H17.454V3.304H15.484V5.238Z" fill-rule="evenodd" id="path_0"/></svg>
